<svg xmlns="http://www.w3.org/2000/svg" viewBox="0 0 22 22"><defs><style>.a{fill-rule:evenodd;}</style></defs><title>tw</title><path class="a" d="M20,0H2A2,2,0,0,0,0,2V20a2,2,0,0,0,2,2H20a2,2,0,0,0,2-2V2A2,2,0,0,0,20,0ZM17.36,7.24c0,.14,0,.28,0,.42A9.34,9.34,0,0,1,3,15.53a6.68,6.68,0,0,0,.78,0,6.59,6.59,0,0,0,4.08-1.4,3.29,3.29,0,0,1-3.07-2.28,3.28,3.28,0,0,0,1.48-.06A3.28,3.28,0,0,1,3.64,8.61v0A3.26,3.26,0,0,0,5.13,9a3.28,3.28,0,0,1-1-4.38A9.32,9.32,0,0,0,10.88,8a3.28,3.28,0,0,1,5.59-3,6.58,6.58,0,0,0,2.08-.8,3.29,3.29,0,0,1-1.44,1.82A6.56,6.56,0,0,0,19,5.54,6.68,6.68,0,0,1,17.36,7.24Z"/></svg>